# xmcd
#
# Track frame offsets: 
#        150
#        21952
#        39885
#        58000
#        69647
#        93187
#        105807
#        123450
#        135162
#        157757
#        160365
#        184260
#        208337
#        227430
#
# Disc length: 3277 seconds
#
# Revision: 3
# Processed by: cddbd v1.5.2PL0 Copyright (c) Steve Scherf et al.
# Submitted via: ExactAudioCopy v0.99pb5
#
DISCID=ab0ccb0e
DTITLE=ZZ Top - XXX
DYEAR=1900
DGENRE=Blues Rock
TTITLE0=Poke Chop Sandwich
TTITLE1=Crucifixx A Flatt
TTITLE2=Fearless Boogie
TTITLE3=36-22-36
TTITLE4=Made Into A Movie
TTITLE5=Beatbox
TTITLE6=Trippin'
TTITLE7=Dreadmonboogaloo
TTITLE8=Ninja Shack 
TTITLE9=Live Intro By Ross Mitchell
TTITLE10=Sinpusher
TTITLE11=(Let Me Be Your) Teddy Bear
TTITLE12=Hey Mr. Millionaire
TTITLE13=Belt Buckle
EXTD=
EXTT0=
EXTT1=
EXTT2=
EXTT3=
EXTT4=
EXTT5=
EXTT6=
EXTT7=
EXTT8=
EXTT9=
EXTT10=
EXTT11=
EXTT12=
EXTT13=
PLAYORDER=
